<svg xmlns="http://www.w3.org/2000/svg" width="1024" height="1024">
  <path d="M192 160a32 32 0 0 1 32-32h320a31.99 31.99 0 0 1 22.625 9.373A31.98 31.98 0 0 1 576 160v320a31.98 31.98 0 0 1-9.375 22.627A31.992 31.992 0 0 1 544 512H224a32 32 0 0 1-32-32V160z"/>
  <path d="M64 128A127.997 127.997 0 0 1 192 0h384a128.013 128.013 0 0 1 90.511 37.49A128.005 128.005 0 0 1 704 128v512a128.016 128.016 0 0 1 90.511 37.489A128.02 128.02 0 0 1 832 768v32a31.97 31.97 0 0 0 9.375 22.625C847.376 828.631 855.511 832 864 832s16.625-3.369 22.625-9.375A31.973 31.973 0 0 0 896 800V512h-32a31.99 31.99 0 0 1-22.625-9.373A31.98 31.98 0 0 1 832 480V280a31.98 31.98 0 0 1 9.375-22.627A31.992 31.992 0 0 1 864 248h95.677c-.701-30.464-3.389-57.216-12.861-78.208A62.077 62.077 0 0 0 921.6 140.48C909.824 133.44 891.904 128 864 128a31.99 31.99 0 0 1-22.625-9.373C835.369 112.626 832 104.487 832 96s3.369-16.626 9.375-22.627A31.992 31.992 0 0 1 864 64c36.096-.086 66.217 7.082 90.368 21.504 24.509 14.592 40.576 35.264 50.816 58.048 18.883 41.92 18.816 93.76 18.816 133.184v203.2a31.989 31.989 0 0 1-9.349 22.668 32.006 32.006 0 0 1-22.65 9.395h-32v288a95.979 95.979 0 0 1-28.119 67.881c-18.002 18.007-42.419 28.119-67.881 28.119s-49.879-10.112-67.881-28.119a95.979 95.979 0 0 1-28.119-67.881v-32c0-16.973-6.743-33.254-18.744-45.256s-28.283-18.744-45.256-18.744v256h32a31.97 31.97 0 0 1 22.625 9.375c6.006 6.001 9.375 14.136 9.375 22.625s-3.369 16.625-9.375 22.625a31.973 31.973 0 0 1-22.625 9.375h-704a31.98 31.98 0 0 1-22.627-9.375 31.992 31.992 0 0 1 0-45.25 31.982 31.982 0 0 1 22.627-9.375h32v-832zm576 0a63.999 63.999 0 0 0-64-64H192a64.003 64.003 0 0 0-64 64v832h512V128z"/>
</svg>
